/* XPM */
static char *result[] = {
/* columns rows colors chars-per-pixel */
"64 64 5 1 ",
"  c black",
". c gray59",
"X c #C8C8C8",
"o c white",
"O c None",
/* pixels */
"OOOOOOOOOOOOOOOOOOOOOOOO                OOOOOOOOOOOOOOOOOOOOOOOO",
"OOOOOOOOOOOOOOOOOOOOOOOO                OOOOOOOOOOOOOOOOOOOOOOOO",
"OOOOOOOOOOOOOOOOOOOOOOOO                OOOOOOOOOOOOOOOOOOOOOOOO",
"OOOOOOOOOOOOOOOOOOOOOOOO                OOOOOOOOOOOOOOOOOOOOOOOO",
"OOOOOOOOOOOOOOOO        XXXXXXXXXXXXXXXX        OOOOOOOOOOOOOOOO",
"OOOOOOOOOOOOOOOO        XXXXXXXXXXXXXXXX        OOOOOOOOOOOOOOOO",
"OOOOOOOOOOOOOOOO        XXXXXXXXXXXXXXXX        OOOOOOOOOOOOOOOO",
"OOOOOOOOOOOOOOOO        XXXXXXXXXXXXXXXX        OOOOOOOOOOOOOOOO",
"OOOOOOOOOOOO    XXXXXXXXooooXXXXXXXXXXXX........    OOOOOOOOOOOO",
"OOOOOOOOOOOO    XXXXXXXXooooXXXXXXXXXXXX........    OOOOOOOOOOOO",
"OOOOOOOOOOOO    XXXXXXXXooooXXXXXXXXXXXX........    OOOOOOOOOOOO",
"OOOOOOOOOOOO    XXXXXXXXooooXXXXXXXXXXXX........    OOOOOOOOOOOO",
"OOOOOOOO    XXXXXXXXXXXXXXXXXXXXXXXXXXXX............    OOOOOOOO",
"OOOOOOOO    XXXXXXXXXXXXXXXXXXXXXXXXXXXX............    OOOOOOOO",
"OOOOOOOO    XXXXXXXXXXXXXXXXXXXXXXXXXXXX............    OOOOOOOO",
"OOOOOOOO    XXXXXXXXXXXXXXXXXXXXXXXXXXXX............    OOOOOOOO",
"OOOO    XXXXooooXXXXXXXXXXXXXXXXXXXXXXXXXXXX............    OOOO",
"OOOO    XXXXooooXXXXXXXXXXXXXXXXXXXXXXXXXXXX............    OOOO",
"OOOO    XXXXooooXXXXXXXXXXXXXXXXXXXXXXXXXXXX............    OOOO",
"OOOO    XXXXooooXXXXXXXXXXXXXXXXXXXXXXXXXXXX............    OOOO",
"OOOO    XXXXXXXXXXXXooooXXXXXXXXXXXXXXXXXXXX............    OOOO",
"OOOO    XXXXXXXXXXXXooooXXXXXXXXXXXXXXXXXXXX............    OOOO",
"OOOO    XXXXXXXXXXXXooooXXXXXXXXXXXXXXXXXXXX............    OOOO",
"OOOO    XXXXXXXXXXXXooooXXXXXXXXXXXXXXXXXXXX............    OOOO",
"    XXXXXXXXXXXXXXXXXXXXXXXXXXXXXXXXXXXXXXXX....XXXX........    ",
"    XXXXXXXXXXXXXXXXXXXXXXXXXXXXXXXXXXXXXXXX....XXXX........    ",
"    XXXXXXXXXXXXXXXXXXXXXXXXXXXXXXXXXXXXXXXX....XXXX........    ",
"    XXXXXXXXXXXXXXXXXXXXXXXXXXXXXXXXXXXXXXXX....XXXX........    ",
"    ooooXXXXXXXXXXXXXXXXXXXXXXXXXXXXXXXXXXXX................    ",
"    ooooXXXXXXXXXXXXXXXXXXXXXXXXXXXXXXXXXXXX................    ",
"    ooooXXXXXXXXXXXXXXXXXXXXXXXXXXXXXXXXXXXX................    ",
"    ooooXXXXXXXXXXXXXXXXXXXXXXXXXXXXXXXXXXXX................    ",
"    XXXXXXXXXXXXXXXXooooXXXXXXXXXXXXXXXXXXXX................    ",
"    XXXXXXXXXXXXXXXXooooXXXXXXXXXXXXXXXXXXXX................    ",
"    XXXXXXXXXXXXXXXXooooXXXXXXXXXXXXXXXXXXXX................    ",
"    XXXXXXXXXXXXXXXXooooXXXXXXXXXXXXXXXXXXXX................    ",
"    XXXXXXXXXXXXXXXXXXXXXXXXXXXXXXXXXXXXXXXX................    ",
"    XXXXXXXXXXXXXXXXXXXXXXXXXXXXXXXXXXXXXXXX................    ",
"    XXXXXXXXXXXXXXXXXXXXXXXXXXXXXXXXXXXXXXXX................    ",
"    XXXXXXXXXXXXXXXXXXXXXXXXXXXXXXXXXXXXXXXX................    ",
"    XXXXooooXXXXXXXXXXXXXXXXXXXXXXXXXXXXXXXX............XXXX    ",
"    XXXXooooXXXXXXXXXXXXXXXXXXXXXXXXXXXXXXXX............XXXX    ",
"    XXXXooooXXXXXXXXXXXXXXXXXXXXXXXXXXXXXXXX............XXXX    ",
"    XXXXooooXXXXXXXXXXXXXXXXXXXXXXXXXXXXXXXX............XXXX    ",
"    XXXXXXXXXXXXXXXXXXXXXXXXXXXXXXXXXXXXXXXX................    ",
"    XXXXXXXXXXXXXXXXXXXXXXXXXXXXXXXXXXXXXXXX................    ",
"    XXXXXXXXXXXXXXXXXXXXXXXXXXXXXXXXXXXXXXXX................    ",
"    XXXXXXXXXXXXXXXXXXXXXXXXXXXXXXXXXXXXXXXX................    ",
"OOOO    XXXXXXXXXXXXXXXXXXXXXXXXXXXXXXXX........XXXX....    OOOO",
"OOOO    XXXXXXXXXXXXXXXXXXXXXXXXXXXXXXXX........XXXX....    OOOO",
"OOOO    XXXXXXXXXXXXXXXXXXXXXXXXXXXXXXXX........XXXX....    OOOO",
"OOOO    XXXXXXXXXXXXXXXXXXXXXXXXXXXXXXXX........XXXX....    OOOO",
"OOOOOOOO    XXXXXXXXXXXXXXXXXXXXXXXX................    OOOOOOOO",
"OOOOOOOO    XXXXXXXXXXXXXXXXXXXXXXXX................    OOOOOOOO",
"OOOOOOOO    XXXXXXXXXXXXXXXXXXXXXXXX................    OOOOOOOO",
"OOOOOOOO    XXXXXXXXXXXXXXXXXXXXXXXX................    OOOOOOOO",
"OOOOOOOOOOOO        XXXXXXXXXXXX............        OOOOOOOOOOOO",
"OOOOOOOOOOOO        XXXXXXXXXXXX............        OOOOOOOOOOOO",
"OOOOOOOOOOOO        XXXXXXXXXXXX............        OOOOOOOOOOOO",
"OOOOOOOOOOOO        XXXXXXXXXXXX............        OOOOOOOOOOOO",
"OOOOOOOOOOOOOOOOOOOO                        OOOOOOOOOOOOOOOOOOOO",
"OOOOOOOOOOOOOOOOOOOO                        OOOOOOOOOOOOOOOOOOOO",
"OOOOOOOOOOOOOOOOOOOO                        OOOOOOOOOOOOOOOOOOOO",
"OOOOOOOOOOOOOOOOOOOO                        OOOOOOOOOOOOOOOOOOOO"
};
