/* XPM */
static char *result[] = {
/* columns rows colors chars-per-pixel */
"64 64 174 2 ",
"   c #516F79",
".  c #4E717D",
"X  c #54727C",
"o  c #547983",
"O  c #5A7A84",
"+  c #3884B3",
"@  c #3E8BB7",
"#  c #3F8CB8",
"$  c #5E8088",
"%  c #638088",
"&  c #648992",
"*  c #6C8C94",
"=  c #618E9D",
"-  c #688E99",
";  c #6A929C",
":  c #428EB9",
">  c #4491BB",
",  c #4A96BE",
"<  c #4C98BF",
"1  c #6D98A5",
"2  c #639BAE",
"3  c #6C9CAD",
"4  c #659BB1",
"5  c #699FB2",
"6  c #71A0AF",
"7  c #6BA2BE",
"8  c #74A4B3",
"9  c #75A9B9",
"0  c #7DABBA",
"q  c #7FB0BC",
"w  c #4E99C1",
"e  c #539DC3",
"r  c #56A1C6",
"t  c #59A3C7",
"y  c #57A2C8",
"u  c #5CA5C9",
"i  c #5EA8CD",
"p  c #5EABD2",
"a  c #56AADE",
"s  c #5AACDE",
"d  c #61A3C6",
"f  c #6EA5C1",
"g  c #64ABCD",
"h  c #68AECE",
"j  c #71A7C2",
"k  c #74ABC6",
"l  c #74AFCA",
"z  c #7AAFC9",
"x  c #6FB2CE",
"c  c #75B0C5",
"v  c #7CB5C7",
"b  c #75B1CD",
"n  c #7BB3CC",
"m  c #7CB8CE",
"M  c #64AED3",
"N  c #69AFD0",
"B  c #61AED8",
"V  c #65B4D3",
"C  c #6BB1D1",
"Z  c #6AB9D6",
"A  c #61B1DE",
"S  c #6BB6DC",
"D  c #6EB8DD",
"F  c #72B5D3",
"G  c #76B9D6",
"H  c #7BBAD6",
"J  c #75BBDA",
"K  c #7CBEDA",
"L  c #5CAFE0",
"P  c #5FB1E0",
"I  c #65B4E1",
"U  c #6BB6E0",
"Y  c #6DB9E2",
"T  c #76BDE1",
"R  c #79BEE2",
"E  c #7DC1DB",
"W  c #77C0E2",
"Q  c #7DC2E3",
"!  c #7AC4E9",
"~  c #7EC9EA",
"^  c #89A7B0",
"/  c #93B4BB",
"(  c #83B4C2",
")  c #8CB6C5",
"_  c #81B6CE",
"`  c #83BACB",
"'  c #8DBDCB",
"]  c #91B4C0",
"[  c #90B8C6",
"{  c #85BAD1",
"}  c #8ABDD4",
"|  c #82BED9",
" . c #81C0D6",
".. c #8DC1D6",
"X. c #84C3DC",
"o. c #8BC4DC",
"O. c #8DC8DD",
"+. c #95C2D7",
"@. c #93C5DB",
"#. c #93CADE",
"$. c #9ACADD",
"%. c #A1C7D3",
"&. c #ADCCD4",
"*. c #A4CBDE",
"=. c #A9CDDC",
"-. c #A3D0DE",
";. c #83C5E3",
":. c #8AC6E3",
">. c #8CCAE4",
",. c #80C7E9",
"<. c #82C9E8",
"1. c #8ACDEA",
"2. c #94CBE3",
"3. c #9BCEE3",
"4. c #96D1E4",
"5. c #9CD1E5",
"6. c #93D2EB",
"7. c #9CD3EA",
"8. c #97D3F1",
"9. c #9DD6F1",
"0. c #9FD8F5",
"q. c #ACCFE2",
"w. c #A4D3E5",
"e. c #A9D6E7",
"r. c #ABD9E6",
"t. c #A4D5EA",
"y. c #AAD7E8",
"u. c #A5D9EB",
"i. c #ADDAE9",
"p. c #B3D4E3",
"a. c #B8D6E4",
"s. c #B2D8E6",
"d. c #BBDAE5",
"f. c #B3DDEA",
"g. c #BADEEC",
"h. c #A6DAF2",
"j. c #ABDCF4",
"k. c #A2D9F8",
"l. c #AADDF9",
"z. c #B0DEF7",
"x. c #B5DFF9",
"c. c #B6E0EB",
"v. c #BCE3EC",
"b. c #B3E1F2",
"n. c #BCE2F3",
"m. c #B5E1FA",
"M. c #BBE3FA",
"N. c #C3DEE9",
"B. c #C2E6EE",
"V. c #CBE5EF",
"C. c #C3E8EE",
"Z. c #D3E6EF",
"A. c #C5E4F0",
"S. c #CAE6F0",
"D. c #C7EAF0",
"F. c #CBEAF2",
"G. c #C3E6F9",
"H. c #C9E7FA",
"J. c #C6E8FB",
"K. c #CCE9FA",
"L. c #D1E6F0",
"P. c #D4ECF3",
"I. c #DAEDF4",
"U. c #D4ECFA",
"Y. c #DAEFFB",
"T. c #DCF2F6",
"R. c #DCF1FB",
"E. c #E2F2F7",
"W. c #E5F4FB",
"Q. c #EAF6FD",
"!. c #EEF8FD",
"~. c #F2FAFE",
"^. c #FDFEFF",
"/. c None",
/* pixels */
"/././././././././././././././././././././././././././././././././././././././././././././././.6 ../././././././././././././././.",
"/././././././././././././././././././././././././././././././././././././././././././././././.S.e.8 /./././././././././././././.",
"/./././././././././././././././././././././././././././././././././././././././././././././.u.i.i.w././././././././././././././.",
"/././././././././././././././././././././././././././././././././././././././././././././.8 B.v.f.w.b./././././././././././././.",
"/././././././././././././././././././././././././././././././././././././././././././././.i.i.f.v.w.n.) /./././././././././././.",
"/./././././././././././././././././././././././././././././././././././././././././././.8 V.C.r.C.| M.U././././././././././././.",
"/./././././././././././././././././././././././././././././././././././././././././././.i.f.C.e.w.h G.U.[ /././././././././././.",
"/./././././././././././././././././././././././././././././././././././././././././././.P.v.C.e.H g G.Y.!./././././././././././.",
"/././././././././././././././././././././././././././././././././././././././././././.#.C.C.C.3.N | G.Y.~.E././././././././././.",
"/././././././././././././././././././././././././././././././././././././././././././.n.C.C.w.N u h.K.U.~.~././././././././././.",
"/././././././././././././././././././././././././././././././././././././././././././.P.C.r.H C w z.U.U.!.^.I./././././././././.",
"/././././././././././././././././././././././././././././././././././././././././././.v.c.2.C y I x.K.Y.!.^.~./././././././././.",
"/./././././././././././././././././././././././././././././././././././././././././.0 i.w.x g I R x.U.U.Q.^.^.^ /./././././././.",
"/./././././././././././././././././././././././././././././././././././././././././.#.w.G N T a 0.x.U.U.Q.^.^.Q././././././././.",
"/./././././././././././././././././././././././././././././././././././././././././.4.3.N ;.A a z.G.U.U.Q.Q.~.^././././././././.",
"/./././././././././././././././././././././././././././././././././././././././././.o.C J :.T s x.U.U.U.W.Q.Q.Q.F./././././././.",
"/././././././././././././././././././././././././././././././././././././././././.E g e w.3.T I j.x.U.U.W.W.Q.Q.G./././././././.",
"/././././././././././././././././././././././././././././././././././././././././.h > 7.f.w.T U 3.t.x.K.Y.Y.Q.Y.x.w././././././.",
"/././././././././././././././././././././././././././././././././.- !./././././.F t J v.A.w.:.R o.S.t.x.H.U.U.U.z.C././././././.",
"/././././././././././././././././././././././././././././././././.W.^.Y./././.n d e f.C.C.w.w.R ;.I.g.h.x.H.U.M.z.v././././././.",
"/././././././././.$ v.w.& /././././././././././././././././././.r.^.^.!./././.| r V v.C.C.i.w.R R } I.v.u.m.G.x.9.| 0 /././././.",
"/././././././././.r.C.C.c.' /././././././././././././././././.X ~.^.^.^.N./.9 d.i E 7.C.C.y.w.2.R ..E.C.v.h.x.x.;.N 8 /././././.",
"/././././././././.i.C.C.C.C.-././././././././././././././././.Y.^.^.^.^.Q./.F =.g R I P.v.w.w.w.T :.*.C.C.C.j.m.5.N . /././././.",
"/././././././././.H W.C.C.C.r.d././././././././././././././.f.^.^.^.^.~.W.$.| e C R I 5.V.e.w.w.R ,.{ Q.C.C.C.j.o.w.= /././././.",
"/././././././././.t V.C.C.C.w.~.&././././././././././././.r.Q.^.^.^.^.Q.J.E S., ;.2.w.! P.w.w.w.2.T { d.v.C.C.y.F f.#./././././.",
"/././././././././.e #.Q.C.C.w.P.~./ /./././././././././.t.Y.Q.Q.^.^.Q.~.G.C *.w ;.F.f.;.w.P.w.w.w.T :.} P.C.C.w.C w.T./././././.",
"/././././././././.> C F.C.C.w.r.!.^.% /././././././.( i.i.G.Q.Q.^.Q.!.K.2.w.> u w.D.y.w.,.I.w.w.w.R ;.{ S.v.C.3.Z o.P./././././.",
"/./././././././.; > C 3.!.C.w.w.~.Q.Q././././././.1 r.v.w.7.J.Q.Q.Q.~.J.N Z.> X.E.C.g.v.;.2.E.g.w.2.R { @.f.f.$.| N v.%././././.",
"/./././././././.5.< F F V.C.w.w.T.Q.~.~./././././.w.C.V.{ ;.x.Y.Q.!.K.t.H d : y.F.C.A.C.w.Q V.C.y.w.T } { V.e...n g 5.T././././.",
"/./././././././.w.F t C 5.T.w.w.w.~.~.^.V./././.5.C.C.E.{ ;.0.G.Q.~.J.C S.: , Q.C.v.C.C.c.>.5.Q.v.w.R ;.{ e.w.{ f r H C./././.#.",
"&././././././.; v.5.< C G I.w.w.F ^.!.^.^.* /.X v.C.v.a._ 2.1.k.K.K.:.N } > u F.C.v.S.c.C.7.R Y.C.w.>.R { @.e.{ 7 g C i./././.w.",
"^././././././.5.C.L.h d h e.w.w.E u.F.Q.^.U./.u.C.C.D.} c f.Q k.l.J.N ..> w X.f.C.f.P.r.v.c.T w.T.y.w.R } { w.{ 7 F h 3.4 /.:.w.",
"^.Q./././././.w.C.E.#., h X.c.7.c.A.c.Q.W.Y.s.r.C.C.!.{ } D.w.9.k.1.N q.g N :.e.C.i.P.w.C.c.T Q E.v.w.T :.{ @.{ 7 f u C N 4 F w.",
"^.^.d././././.i.C.C.B.g u N c.v.C.A.e.W.Q.Y.b.w.C.g.p._ w.D.v.2.k.g N F N N :.w.C.i.P.w.v.e.P T w.T.w.>.R { { _ 7 7 w V ,.L N f.",
"^.^.^./ /././.f.C.C.~.| , #.P.v.C.T.F F.Y.U.E w.C.V.{ l f.C.C.e.;.g $.N N F w.w.C.w.L.w.c.w.P T ;.L.e.w.T ;.{ _ 7 :.! J R I g H ",
"^.^.~.Q.$././.w.v.C.P.e.G Q.i.v.C.D.u b.G.G.t w.C.E.{ l N.C.C.v.g h F N N v.5.w.C.w.L.w.w.w.I A R w.F.w.;.R 7 l 1.:.>.3.;.T , g ",
"Q.^.Q.R.w.i./.2.w.C.C.P.Q.~.w.v.I.o.e n.G.u.u w.f.p._ +.P.C.C.2.3.h N N H P.2.w.g.w.F.w.w.2.! a R :.S.w.:.R b 9.v.C.c.w.2.D : C ",
"!.Q.Q.M.} v.i.4.3.e.w.E.Q.Q.w.c.P.C , e.n.t C w.i._ f w.E.C.v.R w.F N N w.f.| w.i.w.L.w.w.T X.a I R w.e.R U U P.i.C.v.c.w.M ;.y.",
"K.Q.K.8.{ L.C.i.C w.v.^.Q.g.w.g.3.x i r.1.h H w.e._ k w.!.B.5.Q e.w.N H S.i.G 3.w.w.S.w.5.T 3.I s R 2.:.R s ! E.w.c.A.C.f...} t.",
"7.Q.l.Q } =.v.C.>.G !.^.~.H w.V.C y #.C.X.C o.{ +.k @.w.Q.C.R Q i.w.| w.D.w.N ;.w.w.V.w.:.R i.J a D T T T a 6.S.w.w.v.f.2.4.} w.",
"V m.k.3.w.{ S.C.i.n.Q.Q.W.N 2.f.h r P.C.5.C o.{ { 7 w.w.P.y.T Q c.w.w.P.C.w.h R w.w.V.w.T 1.L.H I s T T U L i.v.i.w.w.:.z.3.c w.",
"C >.8.v.P.n L.C.e.H.Q.T.n.N F X.u H T.C.i.C E { _ k w.w.g.:.T ;.v.w.w.T.C.w.h T w.w.g.3.T w.D.w.J a Y T L Y Y.C.c.w.>.6.g.w.X.} ",
"o.e y.C.E.n +.v.y.>.U.G.P.C C h < s.C.C.w.w.C k j @.w.y.e.R T R g.e.i.D.C.w.h T 5.w.g.;.Q v.C.w.C U a T a ,.W.C.c.2.1.w.v.w.C k ",
"N u 7.C.P.$._ V.w.e G.F.A.F V d h P.C.w.4.C.H H 7 I w.g.2.R s R c.w.P.C.v.3.N T :.w.s.T 6.P.C.v.o.J a s a R L.n.5.Q v.f.C.e.C J ",
"h | >.n.F.w.k p.w.u t.F.B.#.e < #.s.w.o.7.C.v.C b s 3.g.R P a E e.w.~.C.s.O.V T R w.t.T g.A.C.C.5.h T L Y Q g.w.J z.i.C.C.e.N u ",
"N w.6.2.v.y.z { 3.F C ;.w.w.> w e.w.w.Z O.u.C.w.F s S f.I a a K w.i.P.C.r.| x T R w.:.Q I.C.C.C.w.C C a Q :.w.R 1.g.C.C.C.e.N g ",
"2.w.6.R f.d.w.z { | N i.;.;.e g H w.C 5.X.u.C.C.H J a I a a a F w.P.C.C.w.G d T T w.T t.F.C.C.C.f.H N Y T 2.;.T f.c.C.C.C.r.N g ",
"e.e.3.T 3.S.w.f { H 3.y.w.T S w N X.F C.F v.c.C.v.h Y a a a s F w.E.C.C.w.C r T R ;.T P.C.C.C.C.v.2.C y I R T T S.v.C.C.C.y.N g ",
"L.i.3.Y R P.w.l j F D.w.v.C.>.> h h w.P.C P.c.A.C.#.g I a a A F w.D.C.C.w.h r R T T Q P.C.C.C.C.v.w.C < L R T Y A.C.C.C.C.e.x i ",
"E.w.3.a Y g.w.M G f.P.w.C.C.5.O.< G C.P.M P.g.u.C.C.Z w s a D G c.C.C.C.w.V r T T T o.e.C.C.C.C.w.w.H e U T T Y d.C.C.C.C.e.x g ",
"D.i.3.s a R T D | A.C.F.C.#.3.C.o.2.C.f.u t.w.e.c.5.i.g r a C G v.C.C.v.w.d t S T I #.w.C.C.C.e.w.w.#.e U R T ~ y.A.v.C.f.w.V u ",
"C.I.5.S a a s C A.D.w.P.c.w w.v.B.>.C.w.u U I A f. .e.H , A M K w.C.C.f.3.r < a P J w.w.v.C.f.w.w.w.3.t S U T 7.e.A.D.u.w.#.h u ",
"C.F.w.D a a C 3.C.E.r.v.t t e.C.C.O.v.e.3.u L :.5.} i.C h > i b w.f.C.f.o.< e a a g w.w.f.C.w.w.w.w.$.g i a L w.i.C.w.w.F N N e ",
"C.C.e.N a p C C.C.P.f.o.> h i.S.C.O.r.v.A.F s 2.;.} C.C h , h > G w.f.e.H > i s P h w.w.w.y.w.w.w.w.2.g e a L w.f.w.#.N N N C e ",
"C.C.e.u s e w.C.C.e.5.Z > F f.V.C.4.2.A.A.c.h Y ;.{ C.h > > e > e H w.w.C > t P A h w.w.w.w.w.w.w.w.@.h w L J w.w.C N N N N N e ",
"C.v.w.e w h o.w.C.w.F V > H g.f.C.e.H F.C.C.H S o.{ f.X.> > > , > u x t , > w Y A u F F F G H H G G G N > J J H N t > : > u N e ",
"c.w.h e > i h x 3.G Z V w h O.y.C.f.h C.C.C.X.H { } r.4.> > > y > > > > > > > S A > , , > > > w , , < , J N C r : > : : : : > > ",
"X.F > i > # > r h e C V e > N X.w.c.t 3.c.#.i k { ' w.O.> > > g > > > > > w > r V > > > > > > > > > > i C N N > : @ + + + + @ > ",
"> , > t > > > > : : V V e > g N | w.e h g r k 7 z } } e > > > g > > : > > y > > p > > > > > > > > > > J N N F @ + + + + + + + + ",
"> > > r > > > > : < V V e t g N h H t > > l 7 7 7 _  .> > > > x > > > > > g > > y > > > > > > > > > E N N N C w + + + + + + + + ",
"> > > e > > > > # V V V C N N N N N g > h 7 7 7 7 7 c > > > > V > > > > > g > > i > > > > > > > > C C N N N N y + # : > : > > > ",
"> > > e > > > > > V V V N N N N N N C e 7 7 7 7 7 7 n , > > > i > > > > > u > > g > > > > > > > , C N N h h N y > > > > > > > > ",
"> > > , > > > : > V V V C V N N N N C k 7 7 7 7 n r : > > > : r > > > > > r > > e > > > > > > > J x N N h V C r > > > > > > > e ",
", < e u h F E E E m E X.O.^ & O /.O 3 1 1 1 O /.o 6 3 _ v c c G x C h g t i r w r w w w e e r V K E Q E X.m n G 4 6 5 5 5 4 4 m "
};
