/* XPM */
static char *result[] = {
/* columns rows colors chars-per-pixel */
"64 64 20 1 ",
"  c #026492",
". c #026A96",
"X c #016698",
"o c #026E98",
"O c #02749C",
"+ c #03789F",
"@ c #037CA1",
"# c #0383A5",
"$ c #0487A8",
"% c #048BAA",
"& c #0491AE",
"* c #0595B1",
"= c #059CB5",
"- c #06A0B7",
"; c #05A3B9",
": c #06AABE",
"> c #06AEC0",
", c #06B3C3",
"< c #07B8C6",
"1 c #07BBC8",
/* pixels */
"%%%%*=#@XXX@%%,,,>:,:,>,:,:,<:<,,:<,,,,,>,,,,,,,,>,,,,,<,<<<,<<<",
"1111<<<<<<,,>>;;;;;;-;;;;;;;;;;;;:;;;;:;>;;:::;>>>>>>>>>>>>,>,>>",
"<,<<,<<,,<,>>::;;;;--;;;;;;;;;:;;:;;;;:;;>;::;>:::::>>>>>>>>,>>>",
",,<,,,,,,,,>>:;;=;-;;-;-;;;;;;;;;;;:::;;;>;:;::;::::;>>>>>>>>>,>",
",,,,,,,,,,,>::;;=;;;;;;;;;;;;;;;;;;;;;;::;;;:;:::;;>::>;>>:>>>>>",
",>,,,>>,>,>:;;;;;;=;-;=;;;;;;;;;;;;;;;;;;;;:;;;;;:>;:;::;::>>>>>",
">>>>>>>>>>>::;;;;=-;;;;;;;;;;;;;;;;;;;;;;;;;;;;;;:;>;;>>::::>>;>",
">>>>>>>>>>>:;;;=;=;-;-;;;;;;;;;;;;;;;;;;;;;;;;;;;;;;;>;;>;>;;;>;",
">>>>>>>>:>>;;;;;;;;;;;=;;;-;-;-;;;---;---;--;;-;;;;;;;;;;;;>;>;;",
">::::>;>::::;;;==;=;;=;;-;-;--;----;--=;=====-=;;=;;;;;;;;;;;>>;",
";:::::>;::;;;==;;=;;;;;;-;=--;--;==;=-===============;=;;;;;;;;=",
":::::;;>;::;;;=;;=;=;==;--;--=-==========*===*=*========;=;;;;;;",
";:;:;>;;;>;;;=;==;;;=;;--;==-==-====**=******&*&******=======;;=",
";:;;:;;;;;;==;=;;;=;;==========*******&&&&&%%&&%%**%*&***=======",
":::;;;;;;;;;=;;=;=======*=*==***=*&*&&&%%%%%%%%%%%%%&&&&****===*",
"-;;;;;;;;==;===;=;======*=**&*&&&&&%&%%%%%%$%$$$%#%##%$%&%&&****",
";;;;=;====-=-=-======**=&&&&&&%&&%%%%%$$$#$##########$##%%&%&&&%",
";=;=;;=;=====--===*=***&&&&%%%%%%%%%$$$$######@#@##@@@###$#$%%&#",
"==;;;===*=*=====*=***&&&%%%%%%%%%%$$$####@#@@@@@@@@@@@@@@####%##",
"=;===;===**=====***&&&%%%%%%%%$$$$#$###@###@@@+@+@@@@@@@@@@####@",
"========*****==***&*%&%%%$$$$$$$$##$##@#@@#@@@@@@+@+++@@@@@@@@@@",
"=======**&&*==**&*%%%%%%%$%$%$$##$#######@@@@@++@+++++O+o@O@@@@O",
"=*===*=**&&*****%&&%%%%%$%$%%$$$$$#$#######+@@@@++++++O+@OOOo@@o",
"*=*=*=***%&*=***&%%%%%%%%%%%%$%$$$#$####@@#@@@@@@++++O+OOO@o@@@o",
"=*******&%**&***&%&%%%%%%%%%%%%%$$#######@#@@@@@@O+@+O+O@OOOO@O.",
"**=*****%&%%&**%&%&%%&%%%%%&%%%%$%$$%####@#@#@@@@@@O+@O+OO+OOO@.",
"**&**&*&*%%*****&%%&%%%%%&%%%%%%%$$$%######@@@@@@OO@++O+OOOOOOO.",
"*&*&**&&%%%%%*%%&&&%&%&%%%%%%%%%%%%$#$$######@@@@@@@++++@OOO+OO.",
"&&&&&&&&%%%%%%**%*%&%%&%%%%%%%%%%%$$%$##$####@@@@@O@+++++OOOOOO.",
"&&&&&%&%&%%%%&%%%%%*&%%%%%%%%%%%%%%$$$#%###@@#@@@@@@+++O++++OOOo",
"&&&&%&%&%%%%%%%%&%%%%%%%%%%#%%%%%$$$%$%#$#####@@@@O@+@+++OOOOOOo",
"&%%%%&%%%%$$%%%%%%%%%%%%%%%%%$#%%%%%%%#%#$###@@@@@@@@++++++O+OOo",
"&%%%%&%%$$$$$$%%%%%%%%%%%%$$%$$$$%%$%%$$#$#####+#+++#O++++OO+OOo",
"%%%%%%%$%$$$$$$$%%$%%$$$$$$$$$$$$$%%$$$$$$####+#+#+#++++++++OOOo",
"%%%%$%%%$$$#$#$$$$$$$%$$$$$$$$$$%%$$$%%$$#$#####+##O+++++O+O+OOo",
"$$$%$$$$#%$#$$#$$$$$$$$$$$#$$$$$$$$%%$$$$$#####+#+#++#+++++OOO+o",
"$$$$$$$$%%####$$$$$#$$$$$$#$$#$$$$$$$#$$$#$###+#+##O+++O++++OOOo",
"$$$$$$#$##$#$###$$#$$#$##$#$$$$$$$$$%%$$#########++##+#+++++OO+o",
"$##$$##$#$#######$#$$$$$$#$#$#$$$$$$$$$$#####+#++#O++++++++OOOOo",
"#######$###$#############$#$#$###$$$$$$$#########+#O+++++++OOOOo",
"#####################$#$$#$#$###$$#$$$$######+#++#+++++++++OOOoo",
"####+########################$#$###$#$#$$#####+##+@#+++++++OOOOo",
"##+####+#+##############$#$######$#$########+##++++++++++O++OOoo",
"+##+++####+@@#+########$#####$################+##@+#++++O+OOOoOo",
"#++#+#+##@##################################++#++@++++++++++OOoo",
"+#++#+#+#++#+#+#@#@#######################+#+#+++++@++++++oooooo",
"+++++#++@##+###+############+###########+#####O#@+@+++++OO+Ooooo",
"++++++++@++#++#+#@+##+####+####+#####+#+#++++++++@++++O++ooOooo.",
"++O++++++@@@@#@@+######+###+####@###@#@@#@@@++++@+++O+OOOOOooo. ",
"+O+O+OO+++++@@@@###++#######+#+#@#+@@#@@@@@@++++++++OOOOOOOoo...",
"OOOOOOOO++++@@@##+#########+####@@@#@@@@+@++@++++++OOOOOOOooo.  ",
"OOOOOOOO+++++@@@+#++#+#+#+##+#++@#@@@@@@@+@++++++OOOOOOOoo..... ",
"oOOoOOOOOOO++@@@@#@#@#@#+###+#+#+@@@+@@+@+++++O+OOOOOOOooo....  ",
"OoOoooOOOOO+++@+@@@##@##+#+#++#+@@++@++@+++++++OOOOOOoooo....   ",
"ooooooOooOOO+++@@@#@@@@@##++#+#+@+@+@++++++++OOOOOoooooo.. .    ",
"oooooooooOOOO++@@@@@@#@@+++#+++++@+++++O+++OOOOOOOoOoo.o. ..    ",
"oo.ooooooooOO+++@@@@@@@@@@@@@@O@+++++++OOOOOOOOoOOO.     .      ",
".......ooooOOOO++@@@@@@+@@OOOO@@++++++OOOOOOOooO.o..            ",
"..........oooOOO+@@@+++@O@O@@OOO+++O+O+OOOOOoOoo....            ",
".... ....o.oooOOOO++++++@OO@OO@O++OOOOoOOOooo..oO...            ",
" . .  ... .oooOOOOOO+OOOOOOOOOOOOOOOOOoOOooOo.....              ",
"         . ...oooOOOOOOOOOoOOOoOOOOooOOooOo..... .              ",
"         . XX..ooOoOOOOoOOOOoOOooooOOooo.o.....                 ",
"            ...oooOOOOOOOOOO+O+++++O+++++++O++OOOOOo            "
};
