/* XPM */
static char *result[] = {
/* columns rows colors chars-per-pixel */
"64 64 6 1 ",
"  c black",
". c #FAC800",
"X c gray59",
"o c #C8C8C8",
"O c white",
"+ c None",
/* pixels */
"++++++++++++++++++++++++++++++++++++++++++++++++++++++++++++++++",
"+++++++++++++++++++++++                +++++++++++++++++++++++++",
"+++++++++++++++++++++++                +++++++++++++++++++++++++",
"+++++++++++++++++++++++                +++++++++++++++++++++++++",
"+++++++++++++++++++++++                +++++++++++++++++++++++++",
"+++++++++++++++        XXXXXXXXXXXXXXXX        +++++++++++++++++",
"+++++++++++++++        XXXXXXXXXXXXXXXX        +++++++++++++++++",
"+++++++++++++++        XXXXXXXXXXXXXXXX        +++++++++++++++++",
"+++++++++++++++        XXXXXXXXXXXXXXXX        +++++++++++++++++",
"+++++++++++    XXXXXXXXXXXXXXXXXXXXXXXXXXXXXXXX    +++++++++++++",
"+++++++++++    XXXXXXXXXXXXXXXXXXXXXXXXXXXXXXXX    +++++++++++++",
"+++++++++++    XXXXXXXXXXXXXXXXXXXXXXXXXXXXXXXX    +++++++++++++",
"+++++++++++    XXXXXXXXXXXXXXXXXXXXXXXXXXXXXXXX    +++++++++++++",
"+++++++    XXXXXXXXXXXXXXXXXXXXXXXXXXXXXXXXXXXXXXXX    +++++++++",
"+++++++    XXXXXXXXXXXXXXXXXXXXXXXXXXXXXXXXXXXXXXXX    +++++++++",
"+++++++    XXXXXXXXXXXXXXXXXXXXXXXXXXXXXXXXXXXXXXXX    +++++++++",
"+++++++    XXXXXXXXXXXXXXXXXXXXXXXXXXXXXXXXXXXXXXXX    +++++++++",
"+++++++    XXXXXXXXXXXXXXXXXXXXXXXXXXXXXXXXoooooooo    +++++++++",
"+++++++    XXXXXXXXXXXXXXXXXXXXXXXXXXXXXXXXoooooooo    +++++++++",
"+++++++    XXXXXXXXXXXXXXXXXXXXXXXXXXXXXXXXoooooooo    +++++++++",
"+++++++    XXXXXXXXXXXXXXXXXXXXXXXXXXXXXXXXoooooooo    +++++++++",
"+++    XXXXXXXXXXXXXXXXXXXXXXXXXXXXXXXXXXXXoooooooooooo    +++++",
"+++    XXXXXXXXXXXXXXXXXXXXXXXXXXXXXXXXXXXXoooooooooooo    +++++",
"+++    XXXXXXXXXXXXXXXXXXXXXXXXXXXXXXXXXXXXoooooooooooo    +++++",
"+++    XXXXXXXXXXXXXXXXXXXXXXXXXXXXXXXXXXXXoooooooooooo    +++++",
"+++    XXXXXXXXXXXXXXXXXXXXXXXXXXXXXXXXoooooooo    oooo    +++++",
"+++    XXXXXXXXXXXXXXXXXXXXXXXXXXXXXXXXoooooooo    oooo    +++++",
"+++    XXXXXXXXXXXXXXXXXXXXXXXXXXXXXXXXoooooooo    oooo    +++++",
"+++    XXXXXXXXXXXXXXXXXXXXXXXXXXXXXXXXoooooooo    oooo    +++++",
"+++    XXXXXXXXXXXXXXXXXXXXXXXXXXXXXXXXoooooooo    oooo    +++++",
"+++    XXXXXXXXXXXXXXXXXXXXXXXXXXXXXXXXoooooooo    oooo    +++++",
"+++    XXXXXXXXXXXXXXXXXXXXXXXXXXXXXXXXoooooooo    oooo    +++++",
"+++    XXXXXXXXXXXXXXXXXXXXXXXXXXXXXXXXoooooooo    oooo    +++++",
"+++    XXXXXXXXXXXXXXXXXXXXXXXXXXXXXXXXoooooooooooo........    +",
"+++    XXXXXXXXXXXXXXXXXXXXXXXXXXXXXXXXoooooooooooo........    +",
"+++    XXXXXXXXXXXXXXXXXXXXXXXXXXXXXXXXoooooooooooo........    +",
"+++    XXXXXXXXXXXXXXXXXXXXXXXXXXXXXXXXoooooooooooo........    +",
"+++    XXXXXXXXXXXXXXXXXXXXXXXX    XXXXoooooooooooooooo    +++++",
"+++    XXXXXXXXXXXXXXXXXXXXXXXX    XXXXoooooooooooooooo    +++++",
"+++    XXXXXXXXXXXXXXXXXXXXXXXX    XXXXoooooooooooooooo    +++++",
"+++    XXXXXXXXXXXXXXXXXXXXXXXX    XXXXoooooooooooooooo    +++++",
"+++    XXXXXXXXXXXX    XXXXXXXX    XXXXooooooooOOOOOOOO    +++++",
"+++    XXXXXXXXXXXX    XXXXXXXX    XXXXooooooooOOOOOOOO    +++++",
"+++    XXXXXXXXXXXX    XXXXXXXX    XXXXooooooooOOOOOOOO    +++++",
"+++    XXXXXXXXXXXX    XXXXXXXX    XXXXooooooooOOOOOOOO    +++++",
"+++    XXXXXXXXXXXXXXXX    XXXX    XXXXOOOOOOOOOOOOOOOO    +++++",
"+++    XXXXXXXXXXXXXXXX    XXXX    XXXXOOOOOOOOOOOOOOOO    +++++",
"+++    XXXXXXXXXXXXXXXX    XXXX    XXXXOOOOOOOOOOOOOOOO    +++++",
"+++    XXXXXXXXXXXXXXXX    XXXX    XXXXOOOOOOOOOOOOOOOO    +++++",
"+++    XXXXXXXXXXXXXXXXXXXX    XXXXXXXXOOOOOOOOOOOOOOOO    +++++",
"+++    XXXXXXXXXXXXXXXXXXXX    XXXXXXXXOOOOOOOOOOOOOOOO    +++++",
"+++    XXXXXXXXXXXXXXXXXXXX    XXXXXXXXOOOOOOOOOOOOOOOO    +++++",
"+++    XXXXXXXXXXXXXXXXXXXX    XXXXXXXXOOOOOOOOOOOOOOOO    +++++",
"+++    XXXXXXXXXXXXXXXXXXXXXXXXXXXXXXXXXXXXOOOOOOOO    +++++++++",
"+++    XXXXXXXXXXXXXXXXXXXXXXXXXXXXXXXXXXXXOOOOOOOO    +++++++++",
"+++    XXXXXXXXXXXXXXXXXXXXXXXXXXXXXXXXXXXXOOOOOOOO    +++++++++",
"+++    XXXXXXXXXXXXXXXXXXXXXXXXXXXXXXXXXXXXOOOOOOOO    +++++++++",
"+++++++                                            +++++++++++++",
"+++++++                                            +++++++++++++",
"+++++++                                            +++++++++++++",
"+++++++                                            +++++++++++++",
"+++++++++++++++++++    ....................    +++++++++++++++++",
"+++++++++++++++++++    ....................    +++++++++++++++++",
"+++++++++++++++++++    ....................    +++++++++++++++++"
};
