/* XPM */
static char *result[] = {
/* columns rows colors chars-per-pixel */
"64 64 6 1 ",
"  c black",
". c #FAC800",
"X c gray59",
"o c #C8C8C8",
"O c white",
"+ c None",
/* pixels */
"++++++++++++++++++++++++++++++++++++++++++++++++++++++++++++++++",
"++++++++++++++++++++++++++                ++++++++++++++++++++++",
"++++++++++++++++++++++++++                ++++++++++++++++++++++",
"++++++++++++++++++++++++++                ++++++++++++++++++++++",
"++++++++++++++++++++++++++                ++++++++++++++++++++++",
"++++++++++++++++++        XXXXXXXXXXXXXXXX        ++++++++++++++",
"++++++++++++++++++        XXXXXXXXXXXXXXXX        ++++++++++++++",
"++++++++++++++++++        XXXXXXXXXXXXXXXX        ++++++++++++++",
"++++++++++++++++++        XXXXXXXXXXXXXXXX        ++++++++++++++",
"++++++++++++++    XXXXXXXXXXXXXXXXXXXXXXXXXXXXXXXX    ++++++++++",
"++++++++++++++    XXXXXXXXXXXXXXXXXXXXXXXXXXXXXXXX    ++++++++++",
"++++++++++++++    XXXXXXXXXXXXXXXXXXXXXXXXXXXXXXXX    ++++++++++",
"++++++++++++++    XXXXXXXXXXXXXXXXXXXXXXXXXXXXXXXX    ++++++++++",
"++++++++++    XXXXXXXXXXXXXXXXXXXXXXXXXXXXXXXXXXXXXXXX    ++++++",
"++++++++++    XXXXXXXXXXXXXXXXXXXXXXXXXXXXXXXXXXXXXXXX    ++++++",
"++++++++++    XXXXXXXXXXXXXXXXXXXXXXXXXXXXXXXXXXXXXXXX    ++++++",
"++++++++++    XXXXXXXXXXXXXXXXXXXXXXXXXXXXXXXXXXXXXXXX    ++++++",
"++++++++++    ooooooooXXXXXXXXXXXXXXXXXXXXXXXXXXXXXXXX    ++++++",
"++++++++++    ooooooooXXXXXXXXXXXXXXXXXXXXXXXXXXXXXXXX    ++++++",
"++++++++++    ooooooooXXXXXXXXXXXXXXXXXXXXXXXXXXXXXXXX    ++++++",
"++++++++++    ooooooooXXXXXXXXXXXXXXXXXXXXXXXXXXXXXXXX    ++++++",
"++++++    ooooooooooooXXXXXXXXXXXXXXXXXXXXXXXXXXXXXXXXXXXX    ++",
"++++++    ooooooooooooXXXXXXXXXXXXXXXXXXXXXXXXXXXXXXXXXXXX    ++",
"++++++    ooooooooooooXXXXXXXXXXXXXXXXXXXXXXXXXXXXXXXXXXXX    ++",
"++++++    ooooooooooooXXXXXXXXXXXXXXXXXXXXXXXXXXXXXXXXXXXX    ++",
"++++++    oooo    ooooooooXXXXXXXXXXXXXXXXXXXXXXXXXXXXXXXX    ++",
"++++++    oooo    ooooooooXXXXXXXXXXXXXXXXXXXXXXXXXXXXXXXX    ++",
"++++++    oooo    ooooooooXXXXXXXXXXXXXXXXXXXXXXXXXXXXXXXX    ++",
"++++++    oooo    ooooooooXXXXXXXXXXXXXXXXXXXXXXXXXXXXXXXX    ++",
"++++++    oooo    ooooooooXXXXXXXXXXXXXXXXXXXXXXXXXXXXXXXX    ++",
"++++++    oooo    ooooooooXXXXXXXXXXXXXXXXXXXXXXXXXXXXXXXX    ++",
"++++++    oooo    ooooooooXXXXXXXXXXXXXXXXXXXXXXXXXXXXXXXX    ++",
"++++++    oooo    ooooooooXXXXXXXXXXXXXXXXXXXXXXXXXXXXXXXX    ++",
"++    ........ooooooooooooXXXXXXXXXXXXXXXXXXXXXXXXXXXXXXXX    ++",
"++    ........ooooooooooooXXXXXXXXXXXXXXXXXXXXXXXXXXXXXXXX    ++",
"++    ........ooooooooooooXXXXXXXXXXXXXXXXXXXXXXXXXXXXXXXX    ++",
"++    ........ooooooooooooXXXXXXXXXXXXXXXXXXXXXXXXXXXXXXXX    ++",
"++++++    ooooooooooooooooXXXX    XXXXXXXXXXXXXXXXXXXXXXXX    ++",
"++++++    ooooooooooooooooXXXX    XXXXXXXXXXXXXXXXXXXXXXXX    ++",
"++++++    ooooooooooooooooXXXX    XXXXXXXXXXXXXXXXXXXXXXXX    ++",
"++++++    ooooooooooooooooXXXX    XXXXXXXXXXXXXXXXXXXXXXXX    ++",
"++++++    OOOOOOOOooooooooXXXX    XXXXXXXX    XXXXXXXXXXXX    ++",
"++++++    OOOOOOOOooooooooXXXX    XXXXXXXX    XXXXXXXXXXXX    ++",
"++++++    OOOOOOOOooooooooXXXX    XXXXXXXX    XXXXXXXXXXXX    ++",
"++++++    OOOOOOOOooooooooXXXX    XXXXXXXX    XXXXXXXXXXXX    ++",
"++++++    OOOOOOOOOOOOOOOOXXXX    XXXX    XXXXXXXXXXXXXXXX    ++",
"++++++    OOOOOOOOOOOOOOOOXXXX    XXXX    XXXXXXXXXXXXXXXX    ++",
"++++++    OOOOOOOOOOOOOOOOXXXX    XXXX    XXXXXXXXXXXXXXXX    ++",
"++++++    OOOOOOOOOOOOOOOOXXXX    XXXX    XXXXXXXXXXXXXXXX    ++",
"++++++    OOOOOOOOOOOOOOOOXXXXXXXX    XXXXXXXXXXXXXXXXXXXX    ++",
"++++++    OOOOOOOOOOOOOOOOXXXXXXXX    XXXXXXXXXXXXXXXXXXXX    ++",
"++++++    OOOOOOOOOOOOOOOOXXXXXXXX    XXXXXXXXXXXXXXXXXXXX    ++",
"++++++    OOOOOOOOOOOOOOOOXXXXXXXX    XXXXXXXXXXXXXXXXXXXX    ++",
"++++++++++    OOOOOOOOXXXXXXXXXXXXXXXXXXXXXXXXXXXXXXXXXXXX    ++",
"++++++++++    OOOOOOOOXXXXXXXXXXXXXXXXXXXXXXXXXXXXXXXXXXXX    ++",
"++++++++++    OOOOOOOOXXXXXXXXXXXXXXXXXXXXXXXXXXXXXXXXXXXX    ++",
"++++++++++    OOOOOOOOXXXXXXXXXXXXXXXXXXXXXXXXXXXXXXXXXXXX    ++",
"++++++++++++++                                            ++++++",
"++++++++++++++                                            ++++++",
"++++++++++++++                                            ++++++",
"++++++++++++++                                            ++++++",
"++++++++++++++++++    ....................    ++++++++++++++++++",
"++++++++++++++++++    ....................    ++++++++++++++++++",
"++++++++++++++++++    ....................    ++++++++++++++++++"
};
