/* XPM */
static char *result[] = {
/* columns rows colors chars-per-pixel */
"64 64 6 1 ",
"  c black",
". c #FAC800",
"X c gray59",
"o c #C8C8C8",
"O c white",
"+ c None",
/* pixels */
"++++++++++++++++++++++++                ++++++++++++++++++++++++",
"++++++++++++++++++++++++                ++++++++++++++++++++++++",
"++++++++++++++++++++++++                ++++++++++++++++++++++++",
"++++++++++++++++++++++++                ++++++++++++++++++++++++",
"++++++++++++++++        XXXXXXXXXXXXXXXX        ++++++++++++++++",
"++++++++++++++++        XXXXXXXXXXXXXXXX        ++++++++++++++++",
"++++++++++++++++        XXXXXXXXXXXXXXXX        ++++++++++++++++",
"++++++++++++++++        XXXXXXXXXXXXXXXX        ++++++++++++++++",
"++++++++++++    XXXXXXXXXXXXXXXXXXXXXXXXXXXXXXXX    ++++++++++++",
"++++++++++++    XXXXXXXXXXXXXXXXXXXXXXXXXXXXXXXX    ++++++++++++",
"++++++++++++    XXXXXXXXXXXXXXXXXXXXXXXXXXXXXXXX    ++++++++++++",
"++++++++++++    XXXXXXXXXXXXXXXXXXXXXXXXXXXXXXXX    ++++++++++++",
"++++++++    XXXXXXXXXXXXXXXXXXXXXXXXXXXXXXXXXXXXXXXX    ++++++++",
"++++++++    XXXXXXXXXXXXXXXXXXXXXXXXXXXXXXXXXXXXXXXX    ++++++++",
"++++++++    XXXXXXXXXXXXXXXXXXXXXXXXXXXXXXXXXXXXXXXX    ++++++++",
"++++++++    XXXXXXXXXXXXXXXXXXXXXXXXXXXXXXXXXXXXXXXX    ++++++++",
"++++++++    XXXXXXXXooooooooooooooooooooooooXXXXXXXX    ++++++++",
"++++++++    XXXXXXXXooooooooooooooooooooooooXXXXXXXX    ++++++++",
"++++++++    XXXXXXXXooooooooooooooooooooooooXXXXXXXX    ++++++++",
"++++++++    XXXXXXXXooooooooooooooooooooooooXXXXXXXX    ++++++++",
"++++    XXXXXXXXooooooooooooooooooooooooooooooooXXXXXXXX    ++++",
"++++    XXXXXXXXooooooooooooooooooooooooooooooooXXXXXXXX    ++++",
"++++    XXXXXXXXooooooooooooooooooooooooooooooooXXXXXXXX    ++++",
"++++    XXXXXXXXooooooooooooooooooooooooooooooooXXXXXXXX    ++++",
"++++    XXXXXXXXoooo    oooooooooooooooo    ooooXXXXXXXX    ++++",
"++++    XXXXXXXXoooo    oooooooooooooooo    ooooXXXXXXXX    ++++",
"++++    XXXXXXXXoooo    oooooooooooooooo    ooooXXXXXXXX    ++++",
"++++    XXXXXXXXoooo    oooooooooooooooo    ooooXXXXXXXX    ++++",
"++++    XXXXoooooooo    oooooooooooooooo    ooooooooXXXX    ++++",
"++++    XXXXoooooooo    oooooooooooooooo    ooooooooXXXX    ++++",
"++++    XXXXoooooooo    oooooooooooooooo    ooooooooXXXX    ++++",
"++++    XXXXoooooooo    oooooooooooooooo    ooooooooXXXX    ++++",
"++++    XXXXoooooooooooo................ooooooooooooXXXX    ++++",
"++++    XXXXoooooooooooo................ooooooooooooXXXX    ++++",
"++++    XXXXoooooooooooo................ooooooooooooXXXX    ++++",
"++++    XXXXoooooooooooo................ooooooooooooXXXX    ++++",
"    XXXXXXXXoooooooooooooooo........ooooooooooooooooXXXXXXXX    ",
"    XXXXXXXXoooooooooooooooo........ooooooooooooooooXXXXXXXX    ",
"    XXXXXXXXoooooooooooooooo........ooooooooooooooooXXXXXXXX    ",
"    XXXXXXXXoooooooooooooooo........ooooooooooooooooXXXXXXXX    ",
"    XXXXXXXXooooOOOOOOOOOOOOOOOOOOOOOOOOOOOOOOOOooooXXXXXXXX    ",
"    XXXXXXXXooooOOOOOOOOOOOOOOOOOOOOOOOOOOOOOOOOooooXXXXXXXX    ",
"    XXXXXXXXooooOOOOOOOOOOOOOOOOOOOOOOOOOOOOOOOOooooXXXXXXXX    ",
"    XXXXXXXXooooOOOOOOOOOOOOOOOOOOOOOOOOOOOOOOOOooooXXXXXXXX    ",
"    XXXX    OOOOOOOOOOOOOOOOOOOOOOOOOOOOOOOOOOOOOOOO    XXXX    ",
"    XXXX    OOOOOOOOOOOOOOOOOOOOOOOOOOOOOOOOOOOOOOOO    XXXX    ",
"    XXXX    OOOOOOOOOOOOOOOOOOOOOOOOOOOOOOOOOOOOOOOO    XXXX    ",
"    XXXX    OOOOOOOOOOOOOOOOOOOOOOOOOOOOOOOOOOOOOOOO    XXXX    ",
"++++        XXXXOOOOOOOOOOOOOOOOOOOOOOOOOOOOOOOOXXXX        ++++",
"++++        XXXXOOOOOOOOOOOOOOOOOOOOOOOOOOOOOOOOXXXX        ++++",
"++++        XXXXOOOOOOOOOOOOOOOOOOOOOOOOOOOOOOOOXXXX        ++++",
"++++        XXXXOOOOOOOOOOOOOOOOOOOOOOOOOOOOOOOOXXXX        ++++",
"++++++++    XXXXOOOOOOOOOOOOOOOOOOOOOOOOOOOOOOOOXXXX    ++++++++",
"++++++++    XXXXOOOOOOOOOOOOOOOOOOOOOOOOOOOOOOOOXXXX    ++++++++",
"++++++++    XXXXOOOOOOOOOOOOOOOOOOOOOOOOOOOOOOOOXXXX    ++++++++",
"++++++++    XXXXOOOOOOOOOOOOOOOOOOOOOOOOOOOOOOOOXXXX    ++++++++",
"++++++++    ............                ............    ++++++++",
"++++++++    ............                ............    ++++++++",
"++++++++    ............                ............    ++++++++",
"++++++++    ............                ............    ++++++++",
"++++++++++++            ++++++++++++++++            ++++++++++++",
"++++++++++++            ++++++++++++++++            ++++++++++++",
"++++++++++++            ++++++++++++++++            ++++++++++++",
"++++++++++++            ++++++++++++++++            ++++++++++++"
};
